<svg width="45" height="44" viewBox="0 0 45 44" fill="none" xmlns="http://www.w3.org/2000/svg">
<path d="M0.169585 27.7469L0 21.5667H2.62856L3.47649 26.5108C4.32441 26.9086 5.18647 27.207 6.06265 27.4059C6.9671 27.5764 7.85742 27.6616 8.73361 27.6616C11.56 27.6616 13.7788 26.7239 15.3898 24.8486C17.0009 22.9448 17.8629 19.8902 17.976 15.6849H9.41195L8.8608 19.6913H6.91058V9.63255H8.8608L9.45435 13.6816H17.976C17.8347 9.58992 16.9443 6.64901 15.305 4.85889C13.6657 3.04036 11.3904 2.13109 8.47924 2.13109C7.60305 2.13109 6.78339 2.21634 6.02026 2.38683C5.25713 2.5289 4.49399 2.79884 3.73086 3.19664L2.88294 8.22602H0.254377L0.423962 2.04585C1.86543 1.22183 3.3069 0.68195 4.74837 0.426218C6.18984 0.142073 7.50412 0 8.69122 0C11.5742 0 14.019 0.596706 16.0258 1.79012C18.0325 2.98353 19.5588 4.68841 20.6045 6.90475C21.6503 9.12108 22.1732 11.7778 22.1732 14.875C22.1732 17.9722 21.6362 20.6432 20.5621 22.888C19.5164 25.1043 17.9901 26.8092 15.9834 28.0026C13.9766 29.196 11.5318 29.7927 8.64882 29.7927C7.17909 29.7927 5.72348 29.6222 4.28201 29.2812C2.86881 28.9687 1.498 28.4572 0.169585 27.7469Z" fill="#790000"/>
<path d="M36.2663 44C33.4117 44 30.8962 43.3749 28.7198 42.1246C26.5718 40.846 24.89 39.0843 23.6747 36.8395C22.4876 34.5948 21.894 32.009 21.894 29.0823C21.894 26.9228 22.2473 24.948 22.9539 23.1579C23.6888 21.3394 24.6922 19.7623 25.9641 18.4269C27.2642 17.0914 28.7764 16.0542 30.5005 15.3155C32.2528 14.5767 34.1607 14.2073 36.2239 14.2073C37.3828 14.2073 38.6829 14.3494 40.1244 14.6335C41.5659 14.8892 42.9932 15.4291 44.4064 16.2531L44.576 22.4333H41.9474L41.0995 17.4892C40.3364 17.063 39.5874 16.7646 38.8525 16.5941C38.1459 16.4236 37.4534 16.3384 36.7751 16.3384C34.8814 16.3384 33.1573 16.8214 31.6028 17.7875C30.0482 18.7536 28.8046 20.1886 27.8719 22.0923C26.9675 23.9677 26.5152 26.2977 26.5152 29.0823C26.5152 31.867 26.9392 34.2112 27.7871 36.1149C28.635 38.0187 29.808 39.4537 31.306 40.4198C32.8323 41.3859 34.5564 41.8689 36.4783 41.8689C37.298 41.8689 38.1318 41.7837 38.9797 41.6132C39.8559 41.4143 40.7038 41.1159 41.5235 40.7181L42.3714 35.774H45L44.8304 41.9541C43.5302 42.6645 42.1453 43.176 40.6755 43.4885C39.2341 43.8295 37.7643 44 36.2663 44Z" fill="#790000"/>
</svg>
